# xmcd
#
# Track frame offsets:
#	150
#	10482
#	22887
#	35777
#	46112
#	59117
#	68717
#	81370
#	94977
#	108797
#
# Disc length: 1599 seconds
#
# Revision: 1
# Processed by: cddbd v1.4PL0 Copyright (c) Steve Scherf et al.
# Submitted via: audiograbber 1.80
#
DISCID=81063d0a
DTITLE=Liberace - As Time Goes By
DYEAR=1900
DGENRE=
TTITLE0=As Time Goes By
TTITLE1=Don't Take Your Love From Me
TTITLE2=I'm In The Mood For Love
TTITLE3=Misty
TTITLE4=I'll Be Seeing You
TTITLE5=Love Letters In The Sand
TTITLE6=My Reverie
TTITLE7=Little Things Mean A Lot
TTITLE8=Love Is A Many Spendored Thing
TTITLE9=Somewhere My Love
EXTD=
EXTT0=
EXTT1=
EXTT2=
EXTT3=
EXTT4=
EXTT5=
EXTT6=
EXTT7=
EXTT8=
EXTT9=
PLAYORDER=
